<?xml version="1.0" encoding="UTF-8" standalone="no"?>
<!-- Created with Inkscape (http://www.inkscape.org/) -->

<svg
   width="10"
   height="14"
   version="1.1"
   viewBox="0 0 2.6458332 3.7041668"
   id="svg12"
   sodipodi:docname="bullet.svg"
   inkscape:version="1.2.1 (9c6d41e410, 2022-07-14)"
   xmlns:inkscape="http://www.inkscape.org/namespaces/inkscape"
   xmlns:sodipodi="http://sodipodi.sourceforge.net/DTD/sodipodi-0.dtd"
   xmlns="http://www.w3.org/2000/svg"
   xmlns:svg="http://www.w3.org/2000/svg">
  <sodipodi:namedview
     id="namedview5"
     pagecolor="#ffffff"
     bordercolor="#666666"
     borderopacity="1.0"
     inkscape:showpageshadow="2"
     inkscape:pageopacity="0.0"
     inkscape:pagecheckerboard="0"
     inkscape:deskcolor="#d1d1d1"
     showgrid="false"
     inkscape:zoom="64.071429"
     inkscape:cx="5.0022297"
     inkscape:cy="5.7670011"
     inkscape:window-width="1912"
     inkscape:window-height="1054"
     inkscape:window-x="0"
     inkscape:window-y="18"
     inkscape:window-maximized="1"
     inkscape:current-layer="svg12" />
  <defs
     id="defs16" />
  <path
     id="path786"
     style="fill:none;stroke:#ffffff;stroke-width:0.490238;stroke-dasharray:none;stop-color:#000000"
     d="M 0.73724162,0.2453891 A 1.1157607,0.69203423 62.715504 0 0 0.5078172,0.30925118 1.1157607,0.69203423 62.715504 0 0 0.45243886,1.6456819 1.1157607,0.69203423 62.715504 0 0 1.0457778,2.2515928 a 0.69203423,1.1157607 27.284496 0 0 0.0178,0.011942 0.69203423,1.1157607 27.284496 0 0 0.2595857,0.062824 1.1157607,0.69203423 62.715504 0 0 0.2590914,-0.062824 1.1157607,0.69203423 62.715504 0 0 0.019778,-0.01298 A 0.69203423,1.1157607 27.284496 0 0 2.1933944,1.6456819 0.69203423,1.1157607 27.284496 0 0 2.1380161,0.30925115 0.69203423,1.1157607 27.284496 0 0 1.3231638,0.51693272 1.1157607,0.69203423 62.715504 0 0 0.73724162,0.2453891 Z" />
</svg>
