<?xml version="1.0" encoding="UTF-8" standalone="no"?>
<!-- Created with Inkscape (http://www.inkscape.org/) -->

<svg
   width="80"
   height="80"
   version="1.1"
   viewBox="0 0 21.166664 21.166667"
   id="svg12"
   sodipodi:docname="logo-black.svg"
   inkscape:version="1.2.1 (9c6d41e410, 2022-07-14)"
   xmlns:inkscape="http://www.inkscape.org/namespaces/inkscape"
   xmlns:sodipodi="http://sodipodi.sourceforge.net/DTD/sodipodi-0.dtd"
   xmlns="http://www.w3.org/2000/svg"
   xmlns:svg="http://www.w3.org/2000/svg">
  <sodipodi:namedview
     id="namedview5"
     pagecolor="#ffffff"
     bordercolor="#666666"
     borderopacity="1.0"
     inkscape:showpageshadow="2"
     inkscape:pageopacity="0.0"
     inkscape:pagecheckerboard="0"
     inkscape:deskcolor="#d1d1d1"
     showgrid="false"
     inkscape:zoom="5.6568543"
     inkscape:cx="10.518213"
     inkscape:cy="74.86493"
     inkscape:window-width="1912"
     inkscape:window-height="1054"
     inkscape:window-x="0"
     inkscape:window-y="18"
     inkscape:window-maximized="1"
     inkscape:current-layer="svg12" />
  <defs
     id="defs16">
    <inkscape:path-effect
       effect="spiro"
       id="path-effect1127"
       is_visible="true"
       lpeversion="1" />
    <inkscape:path-effect
       effect="spiro"
       id="path-effect1127-5"
       is_visible="true"
       lpeversion="1" />
  </defs>
  <path
     id="path285"
     style="fill:#000000;stroke:#000000;stroke-width:0.174409;stroke-dasharray:none;stop-color:#000000"
     d="M 6.8854164,20.791318 A 1.9534606,1.3138562 71.433658 0 1 5.0229742,19.33982 1.9534606,1.3138562 71.433658 0 1 4.928816,18.974539 L 0.08497094,0.17941476 7.3823214,18.183669 A 1.9534606,1.3138562 71.433658 0 1 7.5237846,18.53269 1.9534606,1.3138562 71.433658 0 1 6.8854164,20.791318 Z M 6.6406015,20.049293 A 1.1720763,0.78831369 71.433658 0 0 7.0236142,18.694119 1.1720763,0.78831369 71.433658 0 0 5.906157,17.823217 1.1720763,0.78831369 71.433658 0 0 5.5231449,19.178392 1.1720763,0.78831369 71.433658 0 0 6.6406015,20.049293 Z" />
  <path
     id="path285-7"
     style="fill:#000000;stroke:#000000;stroke-width:0.174409;stroke-dasharray:none;stop-color:#000000"
     d="m 15.733244,21.053295 a 1.3144004,1.9526517 14.515223 0 1 -0.794325,-2.209711 1.3144004,1.9526517 14.515223 0 1 0.117068,-0.358742 L 21.080403,0.02663944 17.558329,19.108317 a 1.3144004,1.9526517 14.515223 0 1 -0.06828,0.369909 1.3144004,1.9526517 14.515223 0 1 -1.756809,1.575069 z m 0.192497,-0.756956 a 0.78864024,1.171591 14.515223 0 0 1.054076,-0.945044 0.78864024,1.171591 14.515223 0 0 -0.476586,-1.325824 0.78864024,1.171591 14.515223 0 0 -1.054076,0.945043 0.78864024,1.171591 14.515223 0 0 0.476586,1.325825 z" />
  <path
     id="path1125"
     style="fill:none;stroke:#000000;stroke-width:0.518319;stroke-linecap:butt;stroke-linejoin:miter;stroke-dasharray:none;stroke-opacity:1"
     d="m 10.967659,13.464471 c -0.06235,-5.21e-4 -0.124869,0.0063 -0.185737,0.01963 -0.243475,0.05346 -0.454309,0.208505 -0.617841,0.394748 -0.2852621,0.324882 -0.4429437,0.750658 -0.4676728,1.180255 -0.024729,0.429599 0.079301,0.861862 0.2696562,1.248781 0.1170016,0.237817 0.2646066,0.456534 0.4342786,0.658586 0.656935,-0.697479 1.128016,-1.566849 1.229337,-2.508945 0.01459,-0.135632 0.02158,-0.273253 2.63e-4,-0.408014 -0.0213,-0.13476 -0.07247,-0.267403 -0.163126,-0.370188 -0.08197,-0.09294 -0.194064,-0.158251 -0.314472,-0.190338 -0.0602,-0.01604 -0.122348,-0.02397 -0.184695,-0.02452 z m 0.06466,4.11169 c -0.230436,-0.184727 -0.444836,-0.386838 -0.631978,-0.60969 -0.165109,0.175299 -0.341768,0.33963 -0.527577,0.491507 m 1.159555,0.118183 c 0.24046,0.192762 0.498224,0.366738 0.761572,0.524269 0.872653,0.522005 1.833163,0.903055 2.832731,1.10317 0.08079,0.01617 0.161875,0.03072 0.243104,0.04446 m -9.3068442,0.03002 c 0.3162006,-0.05813 0.6295064,-0.134919 0.9392895,-0.220454 1.1818635,-0.326328 2.3475342,-0.786588 3.3050721,-1.545514 0.02217,-0.01757 0.043595,-0.03621 0.065522,-0.05414 M 1.0856129,16.5624 c 0.047706,0.53047 0.2386026,1.047691 0.5476508,1.483801 0.3090483,0.436111 0.7354691,0.790047 1.2233555,1.015374 0.5626086,0.259836 1.1958459,0.346604 1.8162285,0.320979 0.1189042,-0.0049 0.2373422,-0.01491 0.3555243,-0.02725 m 10.373241,-0.03487 c 1.585643,0.164315 3.218695,-0.121558 4.646105,-0.82544"
     sodipodi:nodetypes="ccssscscsscccccsscccsccssscccc" />
</svg>
